<svg width="27" height="25" viewBox="0 0 27 25" fill="none" xmlns="http://www.w3.org/2000/svg">
<path fill-rule="evenodd" clip-rule="evenodd" d="M17.38 12.865H18.92V11.365H17.38V12.865ZM11.77 12.865H13.31V11.365H11.77V12.865ZM12.9 5.375C13.53 4.745 14.41 4.375 15.3 4.375H15.32C17.1 4.375 18.54 5.755 18.69 7.495H11.93C12 6.705 12.33 5.935 12.9 5.375ZM23.34 7.495H20.19C20.04 4.925 17.92 2.875 15.32 2.875H15.3C14.01 2.875 12.75 3.395 11.84 4.305C10.99 5.155 10.5 6.305 10.43 7.495H6.65996L5.70996 23.125H24.29L23.34 7.495Z" fill="black"/>
<path d="M4.16797 8.21094V5.73242H2V4.34375H4.16797V2H5.69727V4.34375H7.84766V5.73242H5.69727V8.21094H4.16797Z" fill="black"/>
</svg>
