<svg width="20" height="11" viewBox="0 0 20 11" fill="none" xmlns="http://www.w3.org/2000/svg">
<path fill-rule="evenodd" clip-rule="evenodd" d="M9.69991 3.61451C7.84916 3.61451 6.34399 5.12059 6.34399 6.97134C6.34399 8.82209 7.84916 10.3273 9.69991 10.3273C11.5507 10.3273 13.0567 8.82209 13.0567 6.97134C13.0567 5.12059 11.5507 3.61451 9.69991 3.61451Z" fill="black"/>
<path fill-rule="evenodd" clip-rule="evenodd" d="M19.008 6.57708C17.0518 2.46033 13.5731 0.00183333 9.70292 0H9.69925C5.82817 0.00183333 2.34942 2.46033 0.39325 6.57708L0 7.40483L1.65642 8.19225L2.04967 7.36358C3.69417 3.90133 6.55417 1.83425 9.70108 1.83333C12.8471 1.83425 15.7071 3.90133 17.3516 7.36358L17.7458 8.19225L19.4013 7.40483L19.008 6.57708Z" fill="black"/>
</svg>
