<svg width="33" height="43" viewBox="0 0 33 43" fill="none" xmlns="http://www.w3.org/2000/svg">
<path fill-rule="evenodd" clip-rule="evenodd" d="M16.0491 22.3958C13.0053 22.3958 10.5283 19.9188 10.5283 16.875C10.5283 13.8313 13.0053 11.3542 16.0491 11.3542C19.0928 11.3542 21.5699 13.8313 21.5699 16.875C21.5699 19.9188 19.0928 22.3958 16.0491 22.3958ZM27.3637 4.93542C24.2783 1.75208 20.2595 0 16.047 0C11.8345 0 7.81368 1.75417 4.72618 4.93958C1.59285 8.17083 -0.127986 12.5125 0.00743084 16.85C0.224098 23.8167 4.9366 28.9021 9.09493 33.3875C12.2678 36.8083 15.0053 39.7625 15.0053 42.7083H17.0887C17.0887 39.6708 19.8324 36.7542 23.0074 33.375C27.1616 28.9563 31.872 23.9479 32.0887 16.85C32.222 12.5104 30.4991 8.16667 27.3637 4.93542Z" fill="#ED1C24"/>
</svg>
