<svg width="13" height="18" viewBox="0 0 13 18" fill="none" xmlns="http://www.w3.org/2000/svg">
<path fill-rule="evenodd" clip-rule="evenodd" d="M6.41964 8.95833C5.20214 8.95833 4.21131 7.9675 4.21131 6.75C4.21131 5.5325 5.20214 4.54167 6.41964 4.54167C7.63714 4.54167 8.62797 5.5325 8.62797 6.75C8.62797 7.9675 7.63714 8.95833 6.41964 8.95833ZM10.9455 1.97417C9.71131 0.700833 8.10381 0 6.41881 0C4.73381 0 3.12547 0.701667 1.89047 1.97583C0.637139 3.26833 -0.0511943 5.005 0.00297233 6.74C0.089639 9.52667 1.97464 11.5608 3.63797 13.355C4.90714 14.7233 6.00214 15.905 6.00214 17.0833H6.83547C6.83547 15.8683 7.93297 14.7017 9.20297 13.35C10.8646 11.5825 12.7488 9.57917 12.8355 6.74C12.8888 5.00417 12.1996 3.26667 10.9455 1.97417Z" fill="#101820"/>
</svg>
