<svg width="17" height="17" viewBox="0 0 17 17" fill="none" xmlns="http://www.w3.org/2000/svg">
<path fill-rule="evenodd" clip-rule="evenodd" d="M15.275 6.62L15.3442 7.24167L16.5867 7.10167L16.5167 6.48083C16.1359 3.08333 13.4967 0.446667 10.0984 0.0691667L9.47669 0L9.33919 1.2425L9.96003 1.31167C12.7742 1.62417 14.9592 3.8075 15.275 6.62Z" fill="#101820"/>
<path fill-rule="evenodd" clip-rule="evenodd" d="M12.3322 6.67859L12.4523 7.29192L13.6789 7.05359L13.5598 6.44026C13.2214 4.70526 11.8831 3.36609 10.1489 3.02942L9.53558 2.91026L9.29642 4.13692L9.90975 4.25609C11.1414 4.49526 12.0922 5.44609 12.3322 6.67859Z" fill="#101820"/>
<path fill-rule="evenodd" clip-rule="evenodd" d="M9.628 11.2863C9.19467 11.1363 7.94883 10.633 6.80967 9.49467C5.7405 8.4255 5.29467 7.24384 5.16384 6.83217L6.57967 4.373L3.498 0.139669L3.17217 0.331335C1.85384 1.10467 0.887169 2.07134 0.129669 3.37384L0.0805022 3.50717C-0.347831 5.79384 0.961335 9.16384 3.3355 11.8938C5.9105 14.8547 9.25383 16.523 12.5722 16.523C12.7222 16.523 12.873 16.5197 13.0222 16.513L13.1213 16.5088L13.2072 16.4597C14.5422 15.7122 15.513 14.7422 16.2597 13.4072L16.4388 13.0863L12.0822 9.87384L9.628 11.2863Z" fill="#101820"/>
</svg>
