<svg width="42" height="42" viewBox="0 0 42 42" fill="none" xmlns="http://www.w3.org/2000/svg">
<path fill-rule="evenodd" clip-rule="evenodd" d="M38.1876 16.55L38.3605 18.1042L41.4667 17.7542L41.2917 16.2021C40.3396 7.70833 33.7417 1.11667 25.2459 0.172917L23.6917 0L23.348 3.10625L24.9001 3.27917C31.9355 4.06042 37.398 9.51875 38.1876 16.55Z" fill="#ED1C24"/>
<path fill-rule="evenodd" clip-rule="evenodd" d="M30.8306 16.6965L31.1306 18.2298L34.1973 17.634L33.8994 16.1006C33.0535 11.7631 29.7077 8.41523 25.3723 7.57356L23.839 7.27565L23.241 10.3423L24.7744 10.6402C27.8535 11.2381 30.2306 13.6152 30.8306 16.6965Z" fill="#ED1C24"/>
<path fill-rule="evenodd" clip-rule="evenodd" d="M24.07 28.2158C22.9867 27.8408 19.8721 26.5825 17.0242 23.7367C14.3513 21.0638 13.2367 18.1096 12.9096 17.0804L16.4492 10.9325L8.74501 0.349172L7.93042 0.828339C4.63459 2.76167 2.21792 5.17834 0.324172 8.43459L0.201256 8.76792C-0.869578 14.4846 2.40334 22.9096 8.33876 29.7346C14.7763 37.1367 23.1346 41.3075 31.4304 41.3075C31.8054 41.3075 32.1825 41.2992 32.5554 41.2825L32.8033 41.2721L33.0179 41.1492C36.3554 39.2804 38.7825 36.8554 40.6492 33.5179L41.0971 32.7158L30.2054 24.6846L24.07 28.2158Z" fill="#ED1C24"/>
</svg>
