<svg width="24" height="26" viewBox="0 0 24 26" fill="none" xmlns="http://www.w3.org/2000/svg">
<path fill-rule="evenodd" clip-rule="evenodd" d="M14.5875 12.4875H16.5125V10.6125H14.5875V12.4875ZM7.575 12.4875H9.5V10.6125H7.575V12.4875ZM8.9875 3.125C9.775 2.3375 10.875 1.875 11.9875 1.875H12.0125C14.2375 1.875 16.0375 3.6 16.225 5.775H7.775C7.8625 4.7875 8.275 3.825 8.9875 3.125ZM22.0375 5.775H18.1C17.9125 2.5625 15.2625 0 12.0125 0H11.9875C10.375 0 8.8 0.65 7.6625 1.7875C6.6 2.85 5.9875 4.2875 5.9 5.775H1.1875L0 25.3125H23.225L22.0375 5.775Z" fill="#101820"/>
</svg>
