<svg width="18" height="18" viewBox="0 0 18 18" fill="none" xmlns="http://www.w3.org/2000/svg">
<path d="M8.1681 0.387472C8.56844 -0.129065 9.34855 -0.129066 9.74889 0.387471L12.5303 3.97618C12.6467 4.12638 12.8035 4.2403 12.9824 4.3046L17.2549 5.84093C17.8699 6.06206 18.111 6.80398 17.7434 7.34435L15.1899 11.0986C15.083 11.2558 15.0231 11.4401 15.0172 11.63L14.8764 16.1682C14.8561 16.8214 14.225 17.28 13.5975 17.0974L9.23786 15.829C9.0554 15.7759 8.86159 15.7759 8.67913 15.829L4.31951 17.0974C3.69201 17.28 3.06089 16.8214 3.04062 16.1682L2.89978 11.63C2.89389 11.4401 2.83399 11.2558 2.72712 11.0986L0.173569 7.34435C-0.193973 6.80398 0.0470914 6.06206 0.662059 5.84093L4.93464 4.3046C5.11346 4.2403 5.27025 4.12638 5.38666 3.97618L8.1681 0.387472Z" fill="#FFB600"/>
</svg>
