<svg width="15" height="14" viewBox="0 0 15 14" fill="none" xmlns="http://www.w3.org/2000/svg">
<path d="M6.266 0.387472C6.66634 -0.129065 7.44645 -0.129066 7.84679 0.387471L9.87822 3.00849C9.99463 3.15868 10.1514 3.2726 10.3302 3.3369L13.4507 4.45896C14.0657 4.68009 14.3068 5.42202 13.9392 5.96238L12.0742 8.70432C11.9674 8.86145 11.9075 9.04577 11.9016 9.23571L11.7987 12.5502C11.7784 13.2034 11.1473 13.6619 10.5198 13.4794L7.33576 12.553C7.1533 12.4999 6.95949 12.4999 6.77703 12.553L3.59298 13.4794C2.96548 13.6619 2.33436 13.2034 2.31409 12.5502L2.21123 9.23571C2.20533 9.04577 2.14544 8.86145 2.03857 8.70432L0.173582 5.96239C-0.19396 5.42202 0.0471042 4.68009 0.662072 4.45896L3.78255 3.3369C3.96137 3.2726 4.11817 3.15868 4.23458 3.00849L6.266 0.387472Z" fill="#FFB600"/>
</svg>
