<svg width="15" height="14" viewBox="0 0 15 14" fill="none" xmlns="http://www.w3.org/2000/svg">
<path d="M6.66089 0.693848C6.86106 0.435579 7.25173 0.43558 7.4519 0.693848L9.48315 3.31494C9.65771 3.54009 9.89282 3.71069 10.1609 3.80713L13.282 4.9292C13.5892 5.03988 13.7097 5.41108 13.5261 5.68115L11.6609 8.42334C11.5006 8.659 11.4109 8.93535 11.4021 9.22021L11.2986 12.5347C11.2885 12.8611 10.9735 13.0904 10.6599 12.9995L7.47534 12.0728C7.20173 11.9932 6.91106 11.9932 6.63745 12.0728L3.45288 12.9995C3.13928 13.0904 2.82434 12.8611 2.81421 12.5347L2.71069 9.22021C2.70185 8.93535 2.61217 8.65901 2.4519 8.42334L0.58667 5.68115C0.403135 5.41107 0.523624 5.03988 0.830811 4.9292L3.9519 3.80713C4.21997 3.71069 4.45509 3.54009 4.62964 3.31494L6.66089 0.693848Z" stroke="#FFB600"/>
</svg>
