<svg width="20" height="25" viewBox="0 0 20 25" fill="none" xmlns="http://www.w3.org/2000/svg">
<path fill-rule="evenodd" clip-rule="evenodd" d="M18.9462 21.449C17.6762 17.4327 14.2638 15.1315 9.58 15.1315H9.54625C4.85 15.1052 1.42 17.4227 0.1475 21.449L0 21.9165L0.4175 22.1715C2.865 23.664 5.9175 24.4202 9.4875 24.4202C9.5275 24.4202 9.5675 24.4202 9.60625 24.4202C13.2262 24.4202 16.1938 23.684 18.6763 22.1715L19.0938 21.9165L18.9462 21.449Z" fill="#101820"/>
<path fill-rule="evenodd" clip-rule="evenodd" d="M9.54691 12.3462C12.9507 12.3462 15.7207 9.5775 15.7207 6.17375C15.7207 2.76875 12.9507 0 9.54691 0C6.14316 0 3.3744 2.76875 3.3744 6.17375C3.3744 9.5775 6.14316 12.3462 9.54691 12.3462Z" fill="#101820"/>
</svg>
